<svg xmlns="http://www.w3.org/2000/svg" width="40.072" height="40.128" viewBox="0 0 40.072 40.128">
  <g id="account" transform="translate(-1435.473 -68.329)">
    <path id="Path_138" data-name="Path 138" d="M1469.354,74.049a20.281,20.281,0,1,0,6.188,14.235,20.212,20.212,0,0,0-6.188-14.235" fill="#6cbce8"/>
    <path id="Path_139" data-name="Path 139" d="M1465.118,100.367H1463.6v-5.36a6.059,6.059,0,0,0-6.052-6.052h-4.3a6.059,6.059,0,0,0-6.052,6.052v5.36h-1.514v-5.36a7.574,7.574,0,0,1,7.566-7.566h4.3a7.574,7.574,0,0,1,7.566,7.566Z" fill="#fff"/>
    <path id="Path_140" data-name="Path 140" d="M1455.4,85.6a5.174,5.174,0,1,1,5.174-5.174A5.18,5.18,0,0,1,1455.4,85.6m0-8.834a3.66,3.66,0,1,0,3.661,3.66,3.664,3.664,0,0,0-3.661-3.66" fill="#fff"/>
  </g>
</svg>
