<svg id="account-white" xmlns="http://www.w3.org/2000/svg" width="69.633" height="69.73" viewBox="0 0 69.633 69.73">
  <path id="Path_138" data-name="Path 138" d="M1494.348,78.269A35.242,35.242,0,1,0,1505.1,103a35.122,35.122,0,0,0-10.753-24.736" transform="translate(-1435.473 -68.329)" fill="#fff"/>
  <path id="Path_139" data-name="Path 139" d="M1479.455,109.9h-2.631v-9.314a10.529,10.529,0,0,0-10.517-10.516h-7.477a10.529,10.529,0,0,0-10.517,10.516V109.9h-2.631v-9.314a13.162,13.162,0,0,1,13.147-13.147h7.477a13.162,13.162,0,0,1,13.147,13.147Z" transform="translate(-1427.941 -54.23)" fill="#052133"/>
  <path id="Path_140" data-name="Path 140" d="M1459.218,93.233a8.991,8.991,0,1,1,8.991-8.991,9,9,0,0,1-8.991,8.991m0-15.351a6.36,6.36,0,1,0,6.362,6.36,6.368,6.368,0,0,0-6.362-6.36" transform="translate(-1424.589 -63.222)" fill="#052133"/>
</svg>
