<svg xmlns="http://www.w3.org/2000/svg" width="69.633" height="69.73" viewBox="0 0 69.633 69.73">
  <g id="cart" transform="translate(-8885.563 1661.671)">
    <g id="cart-2" data-name="cart" transform="translate(8885.563 -1661.671)">
      <path id="Path_134" data-name="Path 134" d="M1563.735,78.269A35.244,35.244,0,1,0,1574.488,103a35.121,35.121,0,0,0-10.753-24.736" transform="translate(-1504.861 -68.329)" fill="#6cbce8"/>
      <path id="Path_135" data-name="Path 135" d="M1547.5,85.477h-5.043l-.028-.235a10.456,10.456,0,0,0-20.767,0l-.028.235h-5.041a1.314,1.314,0,0,0-1.312,1.312v27.752a1.313,1.313,0,0,0,1.312,1.31h32.217v-2.622h-30.9V88.1h3.684v5a.432.432,0,0,0,.024.158l0,1.559h2.587L1524.2,93.2l.016-5.1h15.669l.009,6.713h2.612l0-6.713h3.684v27.752h2.622V86.789a1.313,1.313,0,0,0-1.31-1.312m-7.677,0H1524.27l.052-.309a7.833,7.833,0,0,1,15.448,0Z" transform="translate(-1497.174 -62.659)" fill="#fff"/>
    </g>
  </g>
</svg>
