<svg xmlns="http://www.w3.org/2000/svg" width="40.072" height="40.128" viewBox="0 0 40.072 40.128">
  <g id="cart" transform="translate(-1504.861 -68.329)">
    <path id="Path_134" data-name="Path 134" d="M1538.742,74.049a20.282,20.282,0,1,0,6.188,14.235,20.212,20.212,0,0,0-6.188-14.235" fill="#fff"/>
    <path id="Path_135" data-name="Path 135" d="M1533.822,81.46h-2.9l-.016-.135a6.017,6.017,0,0,0-11.951,0l-.016.135h-2.9a.756.756,0,0,0-.755.755V98.186a.755.755,0,0,0,.755.754h10.771V97.431h-10.016V82.969h2.12v2.875a.251.251,0,0,0,.014.091v.9h1.489l0-.93.009-2.933h9.017l.005,3.863h1.5l0-3.863h2.12v8.2h1.509V82.215a.755.755,0,0,0-.754-.755m-4.418,0h-8.95l.03-.178a4.508,4.508,0,0,1,8.89,0Z" fill="#052133"/>
  </g>
</svg>
