<svg xmlns="http://www.w3.org/2000/svg" width="16.711" height="19.867" viewBox="0 0 16.711 19.867">
  <g id="git-compare-outline" transform="translate(-3.75 -1.189)">
    <path id="Path_222" data-name="Path 222" d="M19.41,7.32,16.875,4.785,19.41,2.25" transform="translate(-5.403)" fill="none" stroke="#000" stroke-linecap="round" stroke-linejoin="round" stroke-width="1.5"/>
    <path id="Path_223" data-name="Path 223" d="M14.555,24.75l2.535,2.535L14.555,29.82" transform="translate(-4.39 -9.824)" fill="none" stroke="#000" stroke-linecap="round" stroke-linejoin="round" stroke-width="1.5"/>
    <path id="Path_224" data-name="Path 224" d="M8.3,5.276a1.9,1.9,0,1,1-1.9-1.9A1.9,1.9,0,0,1,8.3,5.276Z" transform="translate(0 -0.491)" fill="none" stroke="#000" stroke-linecap="round" stroke-linejoin="round" stroke-width="1.5"/>
    <path id="Path_225" data-name="Path 225" d="M28.553,27.776a1.9,1.9,0,1,1-1.9-1.9A1.9,1.9,0,0,1,28.553,27.776Z" transform="translate(-8.842 -10.315)" fill="none" stroke="#000" stroke-linecap="round" stroke-linejoin="round" stroke-width="1.5"/>
    <path id="Path_226" data-name="Path 226" d="M18,6.75h3.327A2.377,2.377,0,0,1,23.7,9.127v8.4" transform="translate(-5.895 -1.965)" fill="none" stroke="#000" stroke-linecap="round" stroke-linejoin="round" stroke-width="1.5"/>
    <path id="Path_227" data-name="Path 227" d="M13.509,20.9H10.182a2.377,2.377,0,0,1-2.377-2.377v-8.4" transform="translate(-1.443 -3.438)" fill="none" stroke="#000" stroke-linecap="round" stroke-linejoin="round" stroke-width="1.5"/>
  </g>
</svg>
