<svg xmlns="http://www.w3.org/2000/svg" width="17.997" height="16.873" viewBox="0 0 17.997 16.873">
  <g id="heart" transform="translate(0 0)">
    <path id="Path_221" data-name="Path 221" d="M9,3.091l-.806-.829A4.225,4.225,0,0,0,1.575,3.434a5.3,5.3,0,0,0,.353,4.932C2.963,10.408,5.117,12.853,9,15.517c3.883-2.664,6.035-5.109,7.071-7.151,1.074-2.122.942-3.782.353-4.932A4.225,4.225,0,0,0,9.806,2.261ZM9,16.873C-8.248,5.476,3.689-3.42,8.8,1.286c.067.062.134.126.2.192q.1-.1.2-.191C14.308-3.422,26.247,5.475,9,16.873Z" transform="translate(0 0)" fill-rule="evenodd"/>
  </g>
</svg>
