<svg xmlns="http://www.w3.org/2000/svg" width="229.958" height="91.044" viewBox="0 0 229.958 91.044">
  <g id="logo" transform="translate(-160.542 -63.484)">
    <path id="Path_1" data-name="Path 1" d="M262.917,78.65a18.533,18.533,0,0,0-18.131,0,15.937,15.937,0,0,0-5.9,6.383,19.366,19.366,0,0,0-2.053,8.926,18.676,18.676,0,0,0,2.157,8.9,16.455,16.455,0,0,0,6.07,6.413,17.328,17.328,0,0,0,9.113,2.367,16.226,16.226,0,0,0,9.98-2.923,16.886,16.886,0,0,0,5.656-7.506l.158-.408h-6.139l-.085.157a10.87,10.87,0,0,1-3.672,3.966,10.493,10.493,0,0,1-5.831,1.534,11.58,11.58,0,0,1-5.779-1.409,10.9,10.9,0,0,1-3.968-3.8,13.458,13.458,0,0,1-1.827-4.965h28.174v-2.32a19.354,19.354,0,0,0-2.054-8.926,16,16,0,0,0-5.867-6.382m-8.746,32.685q-.641,0-1.26-.036.62.036,1.26.036M242.744,90.964a12.635,12.635,0,0,1,3.521-6.694,10.346,10.346,0,0,1,7.569-2.809,10.462,10.462,0,0,1,7.6,2.81,12.189,12.189,0,0,1,3.492,6.693Z" fill="#fff"/>
    <path id="Path_2" data-name="Path 2" d="M302.077,78.785a18.533,18.533,0,0,0-18.131,0,15.943,15.943,0,0,0-5.9,6.383,19.366,19.366,0,0,0-2.053,8.926,18.676,18.676,0,0,0,2.157,8.9,16.448,16.448,0,0,0,6.07,6.413,17.328,17.328,0,0,0,9.113,2.367,16.218,16.218,0,0,0,9.98-2.923,16.886,16.886,0,0,0,5.656-7.506l.158-.408h-6.139l-.085.157a10.87,10.87,0,0,1-3.672,3.966,10.492,10.492,0,0,1-5.83,1.534,11.582,11.582,0,0,1-5.78-1.409,10.886,10.886,0,0,1-3.967-3.8,13.442,13.442,0,0,1-1.828-4.965H310v-2.32a19.354,19.354,0,0,0-2.054-8.926,16.009,16.009,0,0,0-5.867-6.382M281.9,91.1a12.636,12.636,0,0,1,3.522-6.694,10.344,10.344,0,0,1,7.568-2.809,10.459,10.459,0,0,1,7.6,2.811A12.183,12.183,0,0,1,304.09,91.1Z" fill="#fff"/>
    <path id="Path_3" data-name="Path 3" d="M315.595,63.484h-.3v47.747h5.651V63.484h-5.351Z" fill="#fff"/>
    <path id="Path_4" data-name="Path 4" d="M351.9,78.785a18.533,18.533,0,0,0-18.131,0,15.943,15.943,0,0,0-5.9,6.383,19.366,19.366,0,0,0-2.053,8.926,18.676,18.676,0,0,0,2.157,8.9,16.441,16.441,0,0,0,6.07,6.413,17.328,17.328,0,0,0,9.113,2.367,16.218,16.218,0,0,0,9.98-2.923,16.886,16.886,0,0,0,5.656-7.506l.158-.408H352.81l-.085.157a10.87,10.87,0,0,1-3.672,3.966,10.492,10.492,0,0,1-5.83,1.534,11.582,11.582,0,0,1-5.78-1.409,10.9,10.9,0,0,1-3.968-3.8,13.458,13.458,0,0,1-1.827-4.965h28.174v-2.32a19.354,19.354,0,0,0-2.054-8.926,16.01,16.01,0,0,0-5.867-6.382M331.728,91.1A12.632,12.632,0,0,1,335.25,84.4a10.344,10.344,0,0,1,7.568-2.809,10.459,10.459,0,0,1,7.6,2.811,12.183,12.183,0,0,1,3.492,6.692Z" fill="#fff"/>
    <path id="Path_5" data-name="Path 5" d="M383.2,76.416h-.337a13.012,13.012,0,0,0-5.48,1.071,13.255,13.255,0,0,0-3.825,2.586,13.035,13.035,0,0,0-2.309,3q-.268.5-.479.942V76.954h-5.651v34.277h5.651V96.113a16.774,16.774,0,0,1,1.422-6.849,13.025,13.025,0,0,1,4.082-5.2,10.261,10.261,0,0,1,6.32-1.993h.906V76.416Zm-12.73,34.515h0Z" fill="#fff"/>
    <path id="Path_6" data-name="Path 6" d="M230.365,77.72a26.535,26.535,0,0,0,3.748-14.236h-5.4a21.245,21.245,0,0,1-2.935,11.387,19.921,19.921,0,0,1-7.942,7.3,24.634,24.634,0,0,1-11.361,2.6h-.148V63.6h-5.65v47.747h5.65V90.167h.148a24.646,24.646,0,0,1,11.361,2.6,19.935,19.935,0,0,1,7.942,7.3,21.251,21.251,0,0,1,2.935,11.388h5.4a26.535,26.535,0,0,0-3.748-14.236A25.245,25.245,0,0,0,220.3,87.965c-.338-.173-.681-.337-1.025-.5.344-.159.687-.323,1.025-.5a25.245,25.245,0,0,0,10.062-9.253m-24.332,33.323h0Z" fill="#fff"/>
    <path id="Path_7" data-name="Path 7" d="M174.488,86.932A25.206,25.206,0,0,0,184.533,77.7a26.49,26.49,0,0,0,3.741-14.212h-5.386a21.209,21.209,0,0,1-2.929,11.368,19.9,19.9,0,0,1-7.928,7.287,24.6,24.6,0,0,1-11.341,2.6s8.892.913,12.753,2.693c.35-.161.7-.319,1.045-.5" fill="#6cbce8"/>
    <path id="Path_8" data-name="Path 8" d="M174.488,87.922c-.343-.175-.7-.334-1.045-.495-3.861,1.781-12.753,2.694-12.753,2.694a24.6,24.6,0,0,1,11.34,2.594A19.91,19.91,0,0,1,179.959,100a21.213,21.213,0,0,1,2.929,11.369h5.386a26.5,26.5,0,0,0-3.741-14.213,25.221,25.221,0,0,0-10.045-9.236" fill="#ed6f1e"/>
    <path id="Path_9" data-name="Path 9" d="M160.69,84.734h-.148V90.12h.148a30.187,30.187,0,0,0,12.753-2.693,30.2,30.2,0,0,0-12.753-2.693" fill="#fff"/>
    <path id="Path_216" data-name="Path 216" d="M11.067-15.892v2.127H4.322v4.687H9.581v2.127H4.322V0H1.715V-15.892ZM18.155.206a6.452,6.452,0,0,1-3.224-.812,5.831,5.831,0,0,1-2.264-2.287,6.9,6.9,0,0,1-.823-3.418,6.765,6.765,0,0,1,.846-3.407A5.844,5.844,0,0,1,15-12a6.7,6.7,0,0,1,3.27-.8,6.7,6.7,0,0,1,3.27.8,5.844,5.844,0,0,1,2.309,2.287,6.765,6.765,0,0,1,.846,3.407A6.625,6.625,0,0,1,23.826-2.9a6.016,6.016,0,0,1-2.367,2.3A6.821,6.821,0,0,1,18.155.206Zm0-2.264a3.879,3.879,0,0,0,1.886-.48,3.659,3.659,0,0,0,1.429-1.441,4.631,4.631,0,0,0,.549-2.332,4.728,4.728,0,0,0-.526-2.321A3.55,3.55,0,0,0,20.1-10.061a3.814,3.814,0,0,0-1.875-.48,3.751,3.751,0,0,0-1.864.48A3.427,3.427,0,0,0,15-8.632a4.9,4.9,0,0,0-.5,2.321,4.421,4.421,0,0,0,1.04,3.144A3.438,3.438,0,0,0,18.155-2.058Zm8.209-4.253a7.139,7.139,0,0,1,.789-3.418A5.611,5.611,0,0,1,29.337-12a6.317,6.317,0,0,1,3.2-.8,6.281,6.281,0,0,1,3.784,1.086,5.347,5.347,0,0,1,2.024,3.1H35.533a2.974,2.974,0,0,0-1.1-1.463,3.241,3.241,0,0,0-1.9-.526,3.156,3.156,0,0,0-2.55,1.132,4.789,4.789,0,0,0-.949,3.167,4.836,4.836,0,0,0,.949,3.178,3.143,3.143,0,0,0,2.55,1.143,2.893,2.893,0,0,0,3-1.989h2.812A5.63,5.63,0,0,1,36.288-.926,6.073,6.073,0,0,1,32.538.206a6.247,6.247,0,0,1-3.2-.812,5.689,5.689,0,0,1-2.184-2.287A7.139,7.139,0,0,1,26.364-6.311ZM52-12.6V0H49.39V-1.486A4.219,4.219,0,0,1,47.778-.263a5.112,5.112,0,0,1-2.115.446A5.65,5.65,0,0,1,43-.434a4.46,4.46,0,0,1-1.852-1.829,5.934,5.934,0,0,1-.675-2.927V-12.6h2.584v7.02a3.657,3.657,0,0,0,.846,2.6,3.011,3.011,0,0,0,2.309.9,3.048,3.048,0,0,0,2.321-.9,3.626,3.626,0,0,0,.857-2.6V-12.6ZM59.748.206a6.348,6.348,0,0,1-2.664-.537A4.679,4.679,0,0,1,55.22-1.795a3.648,3.648,0,0,1-.732-2.069h2.7a1.84,1.84,0,0,0,.766,1.338,2.781,2.781,0,0,0,1.749.537,2.946,2.946,0,0,0,1.7-.423A1.277,1.277,0,0,0,62.012-3.5a1.115,1.115,0,0,0-.675-1.052A12.644,12.644,0,0,0,59.2-5.3a20.635,20.635,0,0,1-2.309-.755,4.048,4.048,0,0,1-1.543-1.12,2.936,2.936,0,0,1-.652-1.989,3.1,3.1,0,0,1,.595-1.841,3.959,3.959,0,0,1,1.7-1.315,6.365,6.365,0,0,1,2.55-.48,5.265,5.265,0,0,1,3.464,1.086,3.9,3.9,0,0,1,1.406,2.961H61.806a1.857,1.857,0,0,0-.686-1.349,2.565,2.565,0,0,0-1.669-.5,2.709,2.709,0,0,0-1.578.389,1.2,1.2,0,0,0-.549,1.029,1.114,1.114,0,0,0,.366.846,2.606,2.606,0,0,0,.892.537q.526.194,1.555.492a16.914,16.914,0,0,1,2.252.743,4.193,4.193,0,0,1,1.521,1.109,2.934,2.934,0,0,1,.663,1.944A3.26,3.26,0,0,1,63.978-1.6,3.942,3.942,0,0,1,62.3-.274,6.262,6.262,0,0,1,59.748.206ZM78.7-6.608a8.15,8.15,0,0,1-.091,1.28H68.986A3.5,3.5,0,0,0,70.106-2.9a3.537,3.537,0,0,0,2.469.915A3.05,3.05,0,0,0,75.548-3.75H78.36A5.675,5.675,0,0,1,76.291-.9,6.072,6.072,0,0,1,72.575.206,6.435,6.435,0,0,1,69.34-.606,5.775,5.775,0,0,1,67.1-2.892a6.975,6.975,0,0,1-.812-3.418,7.139,7.139,0,0,1,.789-3.418A5.548,5.548,0,0,1,69.294-12a6.6,6.6,0,0,1,3.281-.8,6.417,6.417,0,0,1,3.178.777,5.493,5.493,0,0,1,2.172,2.184A6.577,6.577,0,0,1,78.7-6.608Zm-2.721-.823a2.966,2.966,0,0,0-1.029-2.309,3.679,3.679,0,0,0-2.492-.869,3.348,3.348,0,0,0-2.309.857,3.583,3.583,0,0,0-1.143,2.321Z" transform="translate(199.188 141.146)" fill="#fff"/>
    <path id="Path_10" data-name="Path 10" d="M200.9,125.254v15.892h2.607v-6.952h5.259v-2.126H203.51v-4.688h6.745v-2.126Z" fill="none" stroke="#052133" stroke-miterlimit="10" stroke-width="0.15"/>
    <path id="Path_11" data-name="Path 11" d="M217.332,139.088a3.434,3.434,0,0,1-2.618-1.109,4.416,4.416,0,0,1-1.04-3.144,4.905,4.905,0,0,1,.5-2.32,3.436,3.436,0,0,1,1.361-1.43,3.753,3.753,0,0,1,1.863-.48,3.821,3.821,0,0,1,1.876.48,3.552,3.552,0,0,1,1.394,1.43,4.72,4.72,0,0,1,.526,2.32,4.637,4.637,0,0,1-.548,2.332,3.657,3.657,0,0,1-1.43,1.441A3.878,3.878,0,0,1,217.332,139.088Zm0,2.264a6.811,6.811,0,0,0,3.3-.812,6.023,6.023,0,0,0,2.367-2.3,6.624,6.624,0,0,0,.869-3.407,6.777,6.777,0,0,0-.846-3.407,5.85,5.85,0,0,0-2.31-2.286,7.075,7.075,0,0,0-6.54,0,5.847,5.847,0,0,0-2.309,2.286,6.767,6.767,0,0,0-.846,3.407,6.909,6.909,0,0,0,.823,3.419,5.835,5.835,0,0,0,2.264,2.286A6.442,6.442,0,0,0,217.332,141.352Z" fill="none" stroke="#052133" stroke-miterlimit="10" stroke-width="0.15"/>
    <path id="Path_12" data-name="Path 12" d="M225.517,134.835a7.135,7.135,0,0,0,.789,3.418,5.689,5.689,0,0,0,2.183,2.287,6.24,6.24,0,0,0,3.2.812,6.07,6.07,0,0,0,3.75-1.132,5.63,5.63,0,0,0,2.058-3.052h-2.813a2.893,2.893,0,0,1-3,1.989,3.143,3.143,0,0,1-2.55-1.143,5.784,5.784,0,0,1,0-6.346,3.158,3.158,0,0,1,2.55-1.132,3.247,3.247,0,0,1,1.9.526,2.979,2.979,0,0,1,1.1,1.464H237.5a5.354,5.354,0,0,0-2.024-3.1,6.98,6.98,0,0,0-6.986-.285,5.614,5.614,0,0,0-2.183,2.275A7.138,7.138,0,0,0,225.517,134.835Z" fill="none" stroke="#052133" stroke-miterlimit="10" stroke-width="0.15"/>
    <path id="Path_13" data-name="Path 13" d="M248.54,128.547v7.02a3.628,3.628,0,0,1-.857,2.6,3.047,3.047,0,0,1-2.321.9,3.009,3.009,0,0,1-2.31-.9,3.656,3.656,0,0,1-.846-2.6v-7.02h-2.583v7.409a5.926,5.926,0,0,0,.674,2.926,4.454,4.454,0,0,0,1.852,1.83,5.657,5.657,0,0,0,2.664.617,5.1,5.1,0,0,0,2.115-.446,4.215,4.215,0,0,0,1.612-1.223v1.486h2.607v-12.6Z" fill="none" stroke="#052133" stroke-miterlimit="10" stroke-width="0.15"/>
    <path id="Path_14" data-name="Path 14" d="M258.875,141.352a6.268,6.268,0,0,0,2.55-.48,3.937,3.937,0,0,0,1.68-1.327,3.257,3.257,0,0,0,.6-1.92,2.944,2.944,0,0,0-.663-1.944,4.21,4.21,0,0,0-1.521-1.109,17.038,17.038,0,0,0-2.252-.743q-1.031-.3-1.555-.491a2.607,2.607,0,0,1-.892-.538,1.113,1.113,0,0,1-.366-.846,1.205,1.205,0,0,1,.549-1.029,2.711,2.711,0,0,1,1.577-.388,2.574,2.574,0,0,1,1.67.5,1.863,1.863,0,0,1,.686,1.35h2.607a3.912,3.912,0,0,0-1.406-2.962,5.274,5.274,0,0,0-3.465-1.086,6.347,6.347,0,0,0-2.549.481,3.955,3.955,0,0,0-1.7,1.314,3.106,3.106,0,0,0-.594,1.841,2.94,2.94,0,0,0,.651,1.99,4.062,4.062,0,0,0,1.544,1.12,20.746,20.746,0,0,0,2.309.755,12.619,12.619,0,0,1,2.138.754,1.116,1.116,0,0,1,.675,1.052,1.276,1.276,0,0,1-.606,1.086,2.947,2.947,0,0,1-1.7.423,2.777,2.777,0,0,1-1.749-.538,1.838,1.838,0,0,1-.766-1.337h-2.7a3.638,3.638,0,0,0,.732,2.069,4.669,4.669,0,0,0,1.863,1.464A6.351,6.351,0,0,0,258.875,141.352Z" fill="none" stroke="#052133" stroke-miterlimit="10" stroke-width="0.15"/>
    <path id="Path_15" data-name="Path 15" d="M268.12,133.715a3.582,3.582,0,0,1,1.143-2.321,3.347,3.347,0,0,1,2.31-.858,3.681,3.681,0,0,1,2.492.869,2.966,2.966,0,0,1,1.029,2.31Zm9.7.823a6.581,6.581,0,0,0-.777-3.236,5.507,5.507,0,0,0-2.173-2.184,6.429,6.429,0,0,0-3.178-.777,6.593,6.593,0,0,0-3.281.8,5.539,5.539,0,0,0-2.218,2.275,7.138,7.138,0,0,0-.789,3.418,6.97,6.97,0,0,0,.812,3.419,5.772,5.772,0,0,0,2.241,2.286,6.433,6.433,0,0,0,3.235.812,6.069,6.069,0,0,0,3.716-1.109,5.678,5.678,0,0,0,2.069-2.847h-2.813a3.049,3.049,0,0,1-2.972,1.761,3.533,3.533,0,0,1-2.469-.915,3.5,3.5,0,0,1-1.121-2.424h9.627A8.261,8.261,0,0,0,277.815,134.538Z" fill="none" stroke="#052133" stroke-miterlimit="10" stroke-width="0.15"/>
    <path id="Path_213" data-name="Path 213" d="M.846-6.357a6.973,6.973,0,0,1,.789-3.361,5.782,5.782,0,0,1,2.149-2.275,5.8,5.8,0,0,1,3.03-.812,5.909,5.909,0,0,1,2.435.537,4.983,4.983,0,0,1,1.909,1.429v-6.082h2.63V0h-2.63V-1.9A4.88,4.88,0,0,1,9.386-.389a5.5,5.5,0,0,1-2.6.595A5.638,5.638,0,0,1,3.784-.629,5.89,5.89,0,0,1,1.635-2.961,7.175,7.175,0,0,1,.846-6.357Zm10.312.046a4.562,4.562,0,0,0-.537-2.264,3.772,3.772,0,0,0-1.406-1.463,3.679,3.679,0,0,0-1.875-.5,3.745,3.745,0,0,0-1.875.492A3.707,3.707,0,0,0,4.059-8.609a4.5,4.5,0,0,0-.537,2.252A4.693,4.693,0,0,0,4.059-4.07a3.791,3.791,0,0,0,1.418,1.5,3.636,3.636,0,0,0,1.864.514,3.679,3.679,0,0,0,1.875-.5,3.753,3.753,0,0,0,1.406-1.475A4.627,4.627,0,0,0,11.158-6.311Z" transform="translate(278.615 141.146)" fill="#fff"/>
    <path id="Path_16" data-name="Path 16" d="M289.773,134.835a4.633,4.633,0,0,1-.537,2.276,3.756,3.756,0,0,1-1.406,1.475,3.681,3.681,0,0,1-1.875.5,3.637,3.637,0,0,1-1.864-.515,3.789,3.789,0,0,1-1.417-1.5,4.687,4.687,0,0,1-.537-2.287,4.486,4.486,0,0,1,.537-2.252,3.7,3.7,0,0,1,1.406-1.441,3.741,3.741,0,0,1,1.875-.492,3.672,3.672,0,0,1,1.875.5,3.763,3.763,0,0,1,1.406,1.463A4.563,4.563,0,0,1,289.773,134.835Zm-10.312-.045a7.178,7.178,0,0,0,.789,3.4,5.9,5.9,0,0,0,2.149,2.332,5.643,5.643,0,0,0,3.007.834,5.5,5.5,0,0,0,2.6-.594,4.874,4.874,0,0,0,1.772-1.51v1.9h2.63v-16.92h-2.63v6.082a4.993,4.993,0,0,0-1.909-1.429,5.91,5.91,0,0,0-2.435-.537,5.748,5.748,0,0,0-5.179,3.087A6.97,6.97,0,0,0,279.461,134.79Z" fill="none" stroke="#052133" stroke-miterlimit="10" stroke-width="0.15"/>
    <path id="Path_214" data-name="Path 214" d="M9.924.206A6.452,6.452,0,0,1,6.7-.606,5.831,5.831,0,0,1,4.436-2.892a6.9,6.9,0,0,1-.823-3.418,6.765,6.765,0,0,1,.846-3.407A5.844,5.844,0,0,1,6.768-12a6.7,6.7,0,0,1,3.27-.8,6.7,6.7,0,0,1,3.27.8,5.844,5.844,0,0,1,2.309,2.287,6.765,6.765,0,0,1,.846,3.407A6.625,6.625,0,0,1,15.594-2.9a6.016,6.016,0,0,1-2.367,2.3A6.821,6.821,0,0,1,9.924.206Zm0-2.264a3.879,3.879,0,0,0,1.886-.48,3.659,3.659,0,0,0,1.429-1.441,4.631,4.631,0,0,0,.549-2.332,4.728,4.728,0,0,0-.526-2.321,3.55,3.55,0,0,0-1.395-1.429,3.814,3.814,0,0,0-1.875-.48,3.751,3.751,0,0,0-1.864.48A3.427,3.427,0,0,0,6.768-8.632a4.9,4.9,0,0,0-.5,2.321,4.421,4.421,0,0,0,1.04,3.144A3.438,3.438,0,0,0,9.924-2.058Z" transform="translate(295.079 141.146)" fill="#fff"/>
    <path id="Path_17" data-name="Path 17" d="M295.078,141.123" fill="none" stroke="#052133" stroke-miterlimit="10" stroke-width="0.15"/>
    <path id="Path_18" data-name="Path 18" d="M304.993,139.088a3.434,3.434,0,0,1-2.618-1.109,4.416,4.416,0,0,1-1.04-3.144,4.905,4.905,0,0,1,.5-2.32,3.436,3.436,0,0,1,1.361-1.43,3.753,3.753,0,0,1,1.863-.48,3.821,3.821,0,0,1,1.876.48,3.552,3.552,0,0,1,1.394,1.43,4.72,4.72,0,0,1,.526,2.32,4.637,4.637,0,0,1-.548,2.332,3.657,3.657,0,0,1-1.43,1.441A3.878,3.878,0,0,1,304.993,139.088Zm0,2.264a6.811,6.811,0,0,0,3.3-.812,6.023,6.023,0,0,0,2.367-2.3,6.624,6.624,0,0,0,.869-3.407,6.777,6.777,0,0,0-.846-3.407,5.85,5.85,0,0,0-2.31-2.286,7.075,7.075,0,0,0-6.54,0,5.847,5.847,0,0,0-2.309,2.286,6.767,6.767,0,0,0-.846,3.407,6.909,6.909,0,0,0,.823,3.419,5.834,5.834,0,0,0,2.264,2.286A6.442,6.442,0,0,0,304.993,141.352Z" fill="none" stroke="#052133" stroke-miterlimit="10" stroke-width="0.15"/>
    <text id="n" transform="translate(312.216 141.146)" fill="#fff" font-size="22.866" font-family="Poppins-Medium, Poppins" font-weight="500"><tspan x="0" y="0">n</tspan></text>
    <path id="Path_19" data-name="Path 19" d="M320.287,128.266a5.762,5.762,0,0,1,2.7.626,4.5,4.5,0,0,1,1.872,1.86,6.13,6.13,0,0,1,.672,2.963v7.506H322.8V134.1a3.6,3.6,0,0,0-.826-2.544,2.953,2.953,0,0,0-2.255-.879,2.99,2.99,0,0,0-2.266.88,3.572,3.572,0,0,0-.837,2.543v7.118h-2.757V128.472h2.757v1.314a4.455,4.455,0,0,1,1.53-1.079A5.318,5.318,0,0,1,320.287,128.266Zm5.093,12.8v-7.356a5.983,5.983,0,0,0-.654-2.891,4.348,4.348,0,0,0-1.81-1.8,5.614,5.614,0,0,0-2.629-.608,5.169,5.169,0,0,0-2.085.429,4.265,4.265,0,0,0-1.607,1.19l-.133.161v-1.574h-2.457v12.449h2.457V134.1a3.714,3.714,0,0,1,.879-2.647,3.134,3.134,0,0,1,2.374-.926,3.1,3.1,0,0,1,2.365.927,3.747,3.747,0,0,1,.866,2.646v6.968Z" fill="#052133"/>
    <text id="_" data-name=" " transform="translate(328.062 141.146)" fill="#fff" font-size="22.866" font-family="Poppins-Medium, Poppins" font-weight="500"><tspan x="0" y="0"> </tspan></text>
    <path id="Path_20" data-name="Path 20" d="M328.061,141.123" fill="none" stroke="#052133" stroke-miterlimit="10" stroke-width="0.15"/>
    <path id="Path_215" data-name="Path 215" d="M13.056-12.6,5.328,5.922H2.63L5.19-.206.229-12.6h2.9L6.677-3l3.681-9.6ZM19.779.206a6.452,6.452,0,0,1-3.224-.812,5.831,5.831,0,0,1-2.264-2.287,6.9,6.9,0,0,1-.823-3.418,6.765,6.765,0,0,1,.846-3.407A5.844,5.844,0,0,1,16.623-12a6.7,6.7,0,0,1,3.27-.8,6.7,6.7,0,0,1,3.27.8,5.844,5.844,0,0,1,2.309,2.287,6.765,6.765,0,0,1,.846,3.407A6.625,6.625,0,0,1,25.449-2.9a6.016,6.016,0,0,1-2.367,2.3A6.821,6.821,0,0,1,19.779.206Zm0-2.264a3.879,3.879,0,0,0,1.886-.48,3.659,3.659,0,0,0,1.429-1.441,4.631,4.631,0,0,0,.549-2.332,4.728,4.728,0,0,0-.526-2.321,3.55,3.55,0,0,0-1.395-1.429,3.814,3.814,0,0,0-1.875-.48,3.751,3.751,0,0,0-1.864.48,3.428,3.428,0,0,0-1.361,1.429,4.9,4.9,0,0,0-.5,2.321,4.421,4.421,0,0,0,1.04,3.144A3.438,3.438,0,0,0,19.779-2.058ZM40.106-12.6V0H37.5V-1.486A4.219,4.219,0,0,1,35.888-.263a5.112,5.112,0,0,1-2.115.446,5.65,5.65,0,0,1-2.664-.617,4.46,4.46,0,0,1-1.852-1.829,5.934,5.934,0,0,1-.675-2.927V-12.6h2.584v7.02a3.657,3.657,0,0,0,.846,2.6,3.011,3.011,0,0,0,2.309.9,3.048,3.048,0,0,0,2.321-.9,3.626,3.626,0,0,0,.857-2.6V-12.6Z" transform="translate(330.645 141.146)" fill="#fff"/>
    <path id="Path_21" data-name="Path 21" d="M341,128.547l-3.681,9.6-3.544-9.6h-2.9l4.962,12.393-2.56,6.128h2.7l7.729-18.521Z" fill="none" stroke="#052133" stroke-miterlimit="10" stroke-width="0.15"/>
    <path id="Path_22" data-name="Path 22" d="M350.412,139.088a3.434,3.434,0,0,1-2.618-1.109,4.416,4.416,0,0,1-1.04-3.144,4.9,4.9,0,0,1,.5-2.32,3.436,3.436,0,0,1,1.361-1.43,3.753,3.753,0,0,1,1.863-.48,3.821,3.821,0,0,1,1.876.48,3.552,3.552,0,0,1,1.394,1.43,4.72,4.72,0,0,1,.526,2.32,4.638,4.638,0,0,1-.548,2.332,3.657,3.657,0,0,1-1.43,1.441A3.878,3.878,0,0,1,350.412,139.088Zm0,2.264a6.811,6.811,0,0,0,3.3-.812,6.023,6.023,0,0,0,2.367-2.3,6.624,6.624,0,0,0,.869-3.407,6.777,6.777,0,0,0-.846-3.407,5.849,5.849,0,0,0-2.31-2.286,7.075,7.075,0,0,0-6.54,0,5.847,5.847,0,0,0-2.309,2.286,6.767,6.767,0,0,0-.846,3.407,6.909,6.909,0,0,0,.823,3.419,5.834,5.834,0,0,0,2.264,2.286A6.443,6.443,0,0,0,350.412,141.352Z" fill="none" stroke="#052133" stroke-miterlimit="10" stroke-width="0.15"/>
    <path id="Path_23" data-name="Path 23" d="M368.126,128.547v7.02a3.628,3.628,0,0,1-.857,2.6,3.047,3.047,0,0,1-2.321.9,3.009,3.009,0,0,1-2.31-.9,3.656,3.656,0,0,1-.846-2.6v-7.02h-2.583v7.409a5.926,5.926,0,0,0,.674,2.926,4.454,4.454,0,0,0,1.852,1.83,5.657,5.657,0,0,0,2.664.617,5.1,5.1,0,0,0,2.115-.446,4.223,4.223,0,0,0,1.612-1.223v1.486h2.607v-12.6Z" fill="none" stroke="#052133" stroke-miterlimit="10" stroke-width="0.15"/>
    <rect id="Rectangle_8" data-name="Rectangle 8" width="229.957" height="91.044" transform="translate(160.543 63.484)" fill="none"/>
  </g>
</svg>
