<svg xmlns="http://www.w3.org/2000/svg" width="40.509" height="40.568" viewBox="0 0 40.509 40.568">
  <g id="Group_105" data-name="Group 105" transform="translate(-1003.047 -68.443)">
    <path id="Path_129" data-name="Path 129" d="M1037.3,74.228a20.429,20.429,0,0,0-28.489,0l-.006.006a20.5,20.5,0,1,0,28.495-.006" fill="#fff"/>
    <path id="Path_130" data-name="Path 130" d="M1031.058,90.54a2.458,2.458,0,0,0-3.472,0l-2.174,2.175a.234.234,0,0,1-.3.026,24.76,24.76,0,0,1-5.8-5.692.226.226,0,0,1,.023-.3l2.229-2.23a2.456,2.456,0,0,0,0-3.464l-3.8-3.8a2.5,2.5,0,0,0-3.468,0l-1.2,1.2a6.962,6.962,0,0,0-1.735,7.138,20.536,20.536,0,0,0,2.5,5.069,25.988,25.988,0,0,0,3.272,3.981,25.707,25.707,0,0,0,4.382,3.537,19.519,19.519,0,0,0,5.694,2.531,6.738,6.738,0,0,0,1.619.2h.007a7.039,7.039,0,0,0,4.987-2.1l1.033-1.034a2.456,2.456,0,0,0,0-3.465Zm-15.009-12.154a.615.615,0,0,1,.418.164l3.813,3.813a.616.616,0,0,1,0,.87l-2.228,2.228a2.049,2.049,0,0,0-.215,2.681,26.421,26.421,0,0,0,2.692,3.141,26.138,26.138,0,0,0,3.545,2.979,2.073,2.073,0,0,0,2.65-.231l2.153-2.187a.617.617,0,0,1,.87,0l3.8,3.809a.615.615,0,0,1,.069.786l-1.1,1.1a5.181,5.181,0,0,1-4.862,1.394,17.668,17.668,0,0,1-5.145-2.305,24.737,24.737,0,0,1-7.115-6.976,18.668,18.668,0,0,1-2.279-4.61,5.128,5.128,0,0,1,1.291-5.27l1.2-1.2a.615.615,0,0,1,.434-.181Z" fill="#052133"/>
  </g>
</svg>
