<svg xmlns="http://www.w3.org/2000/svg" width="23.002" height="23" viewBox="0 0 23.002 23">
  <g id="tag" transform="translate(-2.25 -2.25)">
    <path id="Path_167" data-name="Path 167" d="M15.82,25.25a2.464,2.464,0,0,1-1.741-.723L2.973,13.429a2.464,2.464,0,0,1-.723-1.741V4.714A2.464,2.464,0,0,1,4.714,2.25h6.974a2.464,2.464,0,0,1,1.741.723l11.1,11.1a2.464,2.464,0,0,1,0,3.491l-6.966,6.966a2.464,2.464,0,0,1-1.741.723ZM4.714,3.893a.821.821,0,0,0-.821.821v6.974a.821.821,0,0,0,.246.583l11.1,11.1a.821.821,0,0,0,1.158,0L23.368,16.4a.821.821,0,0,0,0-1.158l-11.1-11.1a.821.821,0,0,0-.583-.246Z" fill="#0b7bbf"/>
    <path id="Path_168" data-name="Path 168" d="M10.036,13.321a3.286,3.286,0,1,1,3.286-3.286A3.286,3.286,0,0,1,10.036,13.321Zm0-4.929a1.643,1.643,0,1,0,1.643,1.643A1.643,1.643,0,0,0,10.036,8.393Z" transform="translate(-1.214 -1.214)" fill="#0b7bbf"/>
  </g>
</svg>
