<svg xmlns="http://www.w3.org/2000/svg" width="40.072" height="40.128" viewBox="0 0 40.072 40.128">
  <g id="search" transform="translate(-1366.083 -68.329)">
    <path id="Path_131" data-name="Path 131" d="M1386.362,108.457a19.519,19.519,0,1,1,14.1-5.731,20.2,20.2,0,0,1-14.1,5.731" fill="#fff"/>
    <path id="Path_132" data-name="Path 132" d="M1395.882,96.757l-5.678-5.6a8.082,8.082,0,0,0,2.16-5.493,8.33,8.33,0,1,0-8.327,8.2,8.376,8.376,0,0,0,5.242-1.832l5.7,5.615ZM1384.037,92.6a6.937,6.937,0,1,1,7.046-6.935,6.993,6.993,0,0,1-7.046,6.935" fill="#052133" fill-rule="evenodd"/>
    <path id="Path_133" data-name="Path 133" d="M1394.977,98.069l-5.722-5.639a8.733,8.733,0,0,1-5.217,1.734,8.5,8.5,0,1,1,8.626-8.5,8.383,8.383,0,0,1-2.047,5.479l5.692,5.611Zm-5.676-6.434,5.676,5.593.478-.471-5.669-5.587.2-.212a7.8,7.8,0,0,0,2.081-5.291,8.031,8.031,0,1,0-8.027,7.9,8.149,8.149,0,0,0,5.055-1.764Zm-5.263,1.266a7.236,7.236,0,1,1,7.345-7.234,7.3,7.3,0,0,1-7.345,7.234m0-13.872a6.637,6.637,0,1,0,6.746,6.638,6.7,6.7,0,0,0-6.746-6.638" fill="#052133"/>
  </g>
</svg>
