<svg id="search" xmlns="http://www.w3.org/2000/svg" width="69.633" height="69.729" viewBox="0 0 69.633 69.729">
  <path id="Path_131" data-name="Path 131" d="M1401.322,138.058a33.918,33.918,0,1,1,24.5-9.959,35.1,35.1,0,0,1-24.5,9.959" transform="translate(-1366.083 -68.329)" fill="#6cbce8"/>
  <path id="Path_132" data-name="Path 132" d="M1410.765,110.985l-9.866-9.726a14.045,14.045,0,0,0,3.753-9.545,14.475,14.475,0,1,0-14.47,14.245,14.555,14.555,0,0,0,9.109-3.183l9.9,9.757Zm-20.583-7.22a12.054,12.054,0,1,1,12.244-12.051,12.151,12.151,0,0,1-12.244,12.051" transform="translate(-1358.984 -61.586)" fill="#fff" fill-rule="evenodd"/>
  <path id="Path_133" data-name="Path 133" d="M1409.414,113.486l-9.943-9.8a15.176,15.176,0,0,1-9.066,3.013,14.767,14.767,0,1,1,14.989-14.765,14.566,14.566,0,0,1-3.557,9.521l9.891,9.75Zm-9.863-11.18,9.863,9.719.831-.818-9.851-9.708.344-.368a13.548,13.548,0,0,0,3.616-9.194,13.955,13.955,0,1,0-13.948,13.724,14.161,14.161,0,0,0,8.784-3.065Zm-9.146,2.2a12.574,12.574,0,1,1,12.763-12.57,12.687,12.687,0,0,1-12.763,12.57m0-24.105a11.534,11.534,0,1,0,11.723,11.535A11.65,11.65,0,0,0,1390.406,80.4" transform="translate(-1359.205 -61.807)" fill="#fff"/>
</svg>
