<svg xmlns="http://www.w3.org/2000/svg" width="20.413" height="20.413" viewBox="0 0 20.413 20.413">
  <g id="product" transform="translate(-4.5 -4.5)">
    <path id="Path_173" data-name="Path 173" d="M9,20.25h5.1v1.7H9Z" transform="translate(-1.098 -3.842)" fill="#0b7bbf"/>
    <path id="Path_174" data-name="Path 174" d="M9,24.75h8.505v1.7H9Z" transform="translate(-1.098 -4.94)" fill="#0b7bbf"/>
    <path id="Path_175" data-name="Path 175" d="M23.212,4.5H6.2A1.7,1.7,0,0,0,4.5,6.2V23.212a1.7,1.7,0,0,0,1.7,1.7H23.212a1.7,1.7,0,0,0,1.7-1.7V6.2a1.7,1.7,0,0,0-1.7-1.7Zm-6.8,1.7V9.6h-3.4V6.2ZM6.2,23.212V6.2h5.1v5.1h6.8V6.2h5.1V23.212Z" fill="#0b7bbf"/>
  </g>
</svg>
